<?xml version="1.0" encoding="UTF-8"?>
<svg version="1.1" xmlns="http://www.w3.org/2000/svg" width="24" height="24">
<path d="M0 0 C4.71370756 0.64985095 8.57686444 2.51561392 12.8125 4.5625 C13.50537109 4.89185547 14.19824219 5.22121094 14.91210938 5.56054688 C16.61044948 6.36872251 18.30555769 7.18368377 20 8 C20 8.66 20 9.32 20 10 C17.2336466 11.34277732 14.46123789 12.67255228 11.6875 14 C10.90181641 14.3815625 10.11613281 14.763125 9.30664062 15.15625 C8.54931641 15.5171875 7.79199219 15.878125 7.01171875 16.25 C6.31522217 16.58515625 5.61872559 16.9203125 4.90112305 17.265625 C3 18 3 18 0 18 C0 15.36 0 12.72 0 10 C1.65 10 3.3 10 5 10 C5 9.34 5 8.68 5 8 C3.35 8 1.7 8 0 8 C0 5.36 0 2.72 0 0 Z " fill="#FFFFFF" transform="translate(2,3)"/>
</svg>
